# AST/ASF file generated using VICON BodyLanguage
# -----------------------------------------------
:version 1.10
:name VICON
:units
  mass 1.0
  length 0.45
  angle deg
:documentation
   .ast/.asf automatically generated from VICON data using
   VICON BodyBuilder and BodyLanguage model FoxedUp or BRILLIANT.MOD
:root
   order TX TY TZ RX RY RZ
   axis XYZ
   position 0 0 0  
   orientation 0 0 0 
:bonedata
  begin
     id 1 
     name lhipjoint
     direction 0.700308 -0.549349 0.455834 
     length 2.59063 
     axis 0 0 0  XYZ
  end
  begin
     id 2 
     name lfemur
     direction 0.34202 -0.939693 0  
     length 6.31066  
     axis 0 0 20  XYZ
    dof rx ry rz
    limits (-160.0 20.0)
           (-70.0 70.0)
           (-60.0 70.0)
  end
  begin
     id 3 
     name ltibia
     direction 0.34202 -0.939693 0   
     length 7.36093   
     axis 0 0 20   XYZ
    dof rx
    limits (-10.0 170.0)
  end
  begin
     id 4 
     name lfoot
     direction 0.0905332 -0.248738 0.96433   
     length 2.0233   
     axis -90 7.62852e-016 20   XYZ
    dof rx rz
    limits (-45.0 90.0)
           (-70.0 20.0)
  end
  begin
     id 5 
     name ltoes
     direction 1.53573e-011 -4.21855e-011 1   
     length 1.01524   
     axis -90 7.62852e-016 20   XYZ
    dof rx
    limits (-90.0 20.0)
  end
  begin
     id 6 
     name rhipjoint
     direction -0.61416 -0.607328 0.503944   
     length 2.34332  
     axis 0 0 0  XYZ 
  end
  begin
     id 7 
     name rfemur
     direction -0.34202 -0.939693 0   
     length 6.58548   
     axis 0 0 -20   XYZ
    dof rx ry rz
    limits (-160.0 20.0)
           (-70.0 70.0)
           (-70.0 60.0)
  end
  begin
     id 8 
     name rtibia
     direction -0.34202 -0.939693 0   
     length 7.20707   
     axis 0 0 -20   XYZ
    dof rx
    limits (-10.0 170.0)
 end
 begin
     id 9 
     name rfoot
     direction -0.136772 -0.375778 0.916561   
     length 1.92184  
     axis -90 -7.62852e-016 -20   XYZ
    dof rx rz
    limits (-45.0 90.0)
           (-20.0 70.0)
  end
  begin
     id 10 
     name rtoes
     direction -1.53535e-011 -4.21828e-011 1   
     length 0.951089   
     axis -90 -7.62852e-016 -20   XYZ
    dof rx
    limits (-90.0 20.0)
  end
  begin
     id 11 
     name lowerback
     direction -0.0444974 0.988086 -0.147332   
     length 1.9609   
     axis 0 0 0   XYZ
    dof rx ry rz
    limits (-20.0 45.0)
           (-30.0 30.0)
           (-30.0 30.0)
  end
  begin
     id 12 
     name upperback
     direction 0.00613146 0.999513 0.0306081   
     length 1.94944   
     axis 0 0 0   XYZ
    dof rx ry rz
    limits (-20.0 45.0)
           (-30.0 30.0)
           (-30.0 30.0)
  end
  begin
     id 13 
     name thorax
     direction 0.0254621 0.994518 0.101418   
     length 2.0119   
     axis 0 0 0   XYZ
    dof rx ry rz
    limits (-20.0 45.0)
           (-30.0 30.0)
           (-30.0 30.0)
  end
  begin
     id 14 
     name lowerneck
     direction 0.0168698 0.977854 0.208608   
     length 1.6375   
     axis 0 0 0   XYZ
    dof rx ry rz
    limits (-20.0 45.0)
           (-30.0 30.0)
           (-30.0 30.0)
  end
  begin
     id 15 
     name upperneck
     direction -0.0283988 0.989338 -0.142843   
     length 1.6851   
     axis 0 0 0   XYZ
    dof rx ry rz
    limits (-20.0 45.0)
           (-30.0 30.0)
           (-30.0 30.0)
  end
  begin
     id 16
     name head
     direction -0.0129422 0.99741 -0.0707489  
     length 1.69029  
     axis 0 0 0   XYZ
    dof rx ry rz
    limits (-20.0 45.0)
           (-30.0 30.0)
           (-30.0 30.0)
  end
  begin
     id 17 
     name lclavicle
     direction 0.820295 0.564628 -0.0911715  
     length 3.16484  
     axis 0 0 0   XYZ
    dof ry rz
    limits (-20.0 10.0)
           (0.0 20.0)
  end
  begin
     id 18 
     name lhumerus
     direction 1 -4.48969e-011 1.00186e-027   
     length 5.17853   
     axis 180 -30 -90   XYZ
    dof rx ry rz
    limits (-60.0 90.0)
           (-90.0 90.0)
           (-90.0 90.0)
  end
  begin
     id 19
     name lradius
     direction 1 -4.48966e-011 -1.52922e-027   
     length 3.40399   
     axis 180 -30 -90   XYZ
    dof rx
    limits (-10.0 170.0)
  end
  begin
     id 20
     name lwrist
     direction 1 -4.48981e-011 -3.80893e-027   
     length 1.70199   
     axis 1.1049e-015 90 90   XYZ
    dof ry
    limits (-180.0 0.0)
 end
  begin
     id 21 
     name lhand
     direction 1 -4.48957e-011 -7.61786e-027   
     length 0.708964   
     axis 4.86085e-015 90 90   XYZ
    dof rx rz
    limits (-90.0 90.0)
           (-45.0 45.0)
  end
  begin
     id 22 
     name lfingers
     direction 1 -4.48929e-011 -1.52357e-026   
     length 0.571585   
     axis 9.7217e-015 90 90   XYZ
    dof rx
    limits (0.0 90.0)
  end
  begin
     id 23
     name lthumb
     direction 0.707107 -6.34905e-011 0.707107   
     length 0.820685   
     axis -90 45 2.85299e-015   XYZ
    dof rx rz
    limits (-45.0 45.0)
           (-45.0 45.0)
  end
  begin
     id 24 
     name rclavicle
     direction -0.858602 0.463947 -0.218075   
     length 3.35137  
     axis 0 0 0   XYZ 
    dof ry rz
    limits (-10.0 20.0)
           (-20.0 0.0)
  end
  begin
     id 25 
     name rhumerus
     direction -1 -4.48969e-011 -1.98511e-027  
     length 5.42351   
     axis 180 30 90   XYZ
    dof rx ry rz
    limits (-90.0 60.0)
           (-90.0 90.0)
           (-90.0 90.0)
  end
  begin
     id 26 
     name rradius
     direction -1 -4.48961e-011 -2.82624e-027   
     length 3.42066   
     axis 180 30 90   XYZ
    dof rx
    limits (-10.0 170.0)
  end
  begin
     id 27 
     name rwrist
     direction -1 -4.48966e-011 -3.80893e-027   
     length 1.71033   
     axis 1.1049e-015 -90 -90   XYZ
    dof ry
    limits (-180.0 0.0)
  end
  begin
     id 28
     name rhand
     direction -1 -4.48964e-011 -7.61786e-027   
     length 0.743608   
     axis 4.86085e-015 -90 -90   XYZ
    dof rx rz
    limits (-90.0 90.0)
           (-45.0 45.0)
  end
  begin
     id 29
     name rfingers
     direction -1 -4.48961e-011 -1.52357e-026   
     length 0.599516   
     axis 9.7217e-015 -90 -90   XYZ
    dof rx
    limits (0.0 90.0)
  end
  begin
     id 30
     name rthumb
     direction -0.707107 -6.34913e-011 0.707107   
     length 0.860789   
     axis -90 -45 -2.85299e-015   XYZ
    dof rx rz
    limits (-45.0 45.0)
           (-45.0 45.0)
  end
:hierarchy
  begin
    root lhipjoint rhipjoint lowerback
    lhipjoint lfemur
    lfemur ltibia
    ltibia lfoot
    lfoot ltoes
    rhipjoint rfemur
    rfemur rtibia
    rtibia rfoot
    rfoot rtoes
    lowerback upperback
    upperback thorax
    thorax lowerneck lclavicle rclavicle
    lowerneck upperneck
    upperneck head
    lclavicle lhumerus
    lhumerus lradius
    lradius lwrist
    lwrist lhand lthumb
    lhand lfingers
    rclavicle rhumerus
    rhumerus rradius
    rradius rwrist
    rwrist rhand rthumb
    rhand rfingers
  end

#!OML:ASF E:\mmandel\Project 1\Capture day 1\Session 2\Subject.ASF
:FULLY-SPECIFIED
:DEGREES
762
root 7.40831 14.5138 0.0157032 134.356 81.9669 115.354
lowerback 28.6845 -0.983303 0.609345
upperback 4.01461 -0.710184 -0.208897
thorax -11.3861 -0.192255 -0.357564
lowerneck -17.1214 -0.765728 0.207597
upperneck -0.972851 -0.510872 -6.13533
head 2.68214 -0.395802 -2.11032
rclavicle -7.95139e-015 -1.90833e-014
rhumerus -8.55311 7.20174 -74.2396
rradius 73.7932
rwrist -369.104
rhand -23.3824 42.8211
rfingers 7.12502
rthumb 3.07378 12.8635
lclavicle -7.95139e-015 -1.90833e-014
lhumerus -26.1818 -8.14569 73.1446
lradius 62.4598
lwrist 34.8317
lhand -21.8079 -42.0904
lfingers 7.12502
lthumb 4.5943 -12.1602
rfemur -60.6282 -11.3901 9.53088
rtibia 71.6483
rfoot -30.9934 -7.86364
rtoes -10.8695
lfemur -57.4892 19.2159 -16.3139
ltibia 60.1462
lfoot -8.70215 -12.74
ltoes -6.95937
763
root 7.4086 14.5153 0.0440645 134.534 81.8761 115.435
lowerback 28.6243 -1.02475 0.802972
upperback 4.00672 -0.699768 -0.15627
thorax -11.3662 -0.195017 -0.413818
lowerneck -16.981 -0.787285 0.173959
upperneck -1.09249 -0.538986 -6.15813
head 2.6136 -0.405298 -2.10977
rclavicle 4.77083e-015 0
rhumerus -7.9775 7.09565 -74.1362
rradius 73.8526
rwrist -369.063
rhand -23.4025 42.8319
rfingers 7.12502
rthumb 3.05439 12.874
lclavicle 4.77083e-015 0
lhumerus -26.6456 -8.07347 73.2936
lradius 63.5921
lwrist 34.9672
lhand -21.886 -42.2026
lfingers 7.12502
lthumb 4.5188 -12.2708
rfemur -60.7815 -11.3922 9.59157
rtibia 71.7559
rfoot -31.11 -7.94006
rtoes -10.726
lfemur -57.7554 19.3308 -16.3092
ltibia 60.2287
lfoot -8.37555 -13.1721
ltoes -6.45741
764
root 7.41109 14.5135 0.0721217 134.281 81.7215 115.169
lowerback 28.6287 -1.03106 0.91687
upperback 4.01812 -0.669251 -0.134962
thorax -11.3562 -0.184756 -0.466973
lowerneck -16.5188 -0.685156 -0.0544498
upperneck -1.24255 -0.386565 -6.0209
head 2.48005 -0.315324 -2.00095
rclavicle 3.02153e-014 3.89618e-014
rhumerus -7.50578 6.9592 -73.9726
rradius 73.9574
rwrist -369.154
rhand -23.3577 42.6664
rfingers 7.12502
rthumb 3.09762 12.7091
lclavicle 3.02153e-014 3.89618e-014
lhumerus -26.989 -8.08202 73.4455
lradius 64.5561
lwrist 34.9461
lhand -22.0636 -42.4774
lfingers 7.12502
lthumb 4.34734 -12.5421
rfemur -60.8356 -11.3993 9.52357
rtibia 71.8786
rfoot -31.2109 -7.88756
rtoes -10.2405
lfemur -57.8201 19.4397 -16.3636
ltibia 60.2768
lfoot -8.21437 -13.7174
ltoes -5.50005
765
root 7.41542 14.5016 0.0986789 134.106 81.5464 115.003
lowerback 28.6463 -1.01026 1.00098
upperback 4.03013 -0.611349 -0.104859
thorax -11.3511 -0.160359 -0.503083
lowerneck -16.4502 -0.6695 0.0467513
upperneck -1.23241 -0.375437 -6.23624
head 2.47358 -0.316611 -2.0906
rclavicle -3.97569e-015 7.15625e-015
rhumerus -7.14676 6.7335 -73.8015
rradius 74.1976
rwrist -369.404
rhand -23.2734 42.3976
rfingers 7.12502
rthumb 3.17911 12.4415
lclavicle -3.97569e-015 7.15625e-015
lhumerus -27.2811 -8.10145 73.6373
lradius 65.5608
lwrist 34.9256
lhand -22.3797 -42.4702
lfingers 7.12502
lthumb 4.04216 -12.5288
rfemur -60.9111 -11.4438 9.43772
rtibia 72.0375
rfoot -31.3138 -7.73832
rtoes -9.69989
lfemur -57.8527 19.5393 -16.4299
ltibia 60.2955
lfoot -8.38596 -14.172
ltoes -6.93394
766
root 7.42052 14.4927 0.122282 133.487 81.3985 114.393
lowerback 28.6923 -0.968474 1.02267
upperback 4.04436 -0.545023 -0.0764352
thorax -11.3571 -0.129419 -0.508059
lowerneck -16.7176 -0.765944 0.171396
upperneck -1.07255 -0.501512 -6.44339
head 2.57563 -0.394086 -2.19971
rclavicle -1.66979e-014 -4.77083e-015
rhumerus -6.74705 6.47621 -73.673
rradius 74.4786
rwrist -369.675
rhand -23.1776 41.9975
rfingers 7.12502
rthumb 3.27161 12.0429
lclavicle -1.66979e-014 -4.77083e-015
lhumerus -27.5971 -8.10319 73.8155
lradius 66.639
lwrist 34.9004
lhand -22.8325 -42.2931
lfingers 7.12502
lthumb 3.60482 -12.3439
rfemur -60.9878 -11.4775 9.35318
rtibia 72.1771
rfoot -31.4034 -7.66527
rtoes -9.65408
lfemur -57.8218 19.6664 -16.5022
ltibia 60.2564
lfoot -8.66732 -14.5566
ltoes -8.57067
767
root 7.4249 14.492 0.14232 132.625 81.2692 113.504
lowerback 28.679 -0.928377 1.02507
upperback 4.07911 -0.486325 -0.0414188
thorax -11.3089 -0.100588 -0.491831
lowerneck -16.7109 -0.799008 0.0450747
upperneck -0.993453 -0.516703 -6.46291
head 2.60094 -0.404389 -2.18552
rclavicle 7.95139e-016 2.3059e-014
rhumerus -6.20588 6.33248 -73.4778
rradius 74.5952
rwrist -369.955
rhand -23.0369 41.6435
rfingers 7.12502
rthumb 3.4075 11.691
lclavicle 7.95139e-016 2.3059e-014
lhumerus -27.8156 -7.97554 73.9775
lradius 67.5551
lwrist 34.8871
lhand -23.0385 -42.6621
lfingers 7.12502
lthumb 3.40591 -12.7096
rfemur -61.0607 -11.5452 9.27347
rtibia 72.252
rfoot -31.4036 -7.65786
rtoes -10.032
lfemur -57.7153 19.7486 -16.5641
ltibia 60.1539
lfoot -8.99043 -14.9768
ltoes -8.71829
